Coordinates
version=1
nRows=7
nColumns=40
inDegrees=yes

Units are S.I. units (second, meters, Newtons, ...)
If the header above contains a line with 'inDegrees', this indicates whether rotational values are in degrees (yes) or radians (no).

endheader
time	pelvis_tilt	pelvis_list	pelvis_rotation	pelvis_tx	pelvis_ty	pelvis_tz	hip_flexion_r	hip_adduction_r	hip_rotation_r	knee_angle_r	knee_angle_r_beta	ankle_angle_r	subtalar_angle_r	mtp_angle_r	hip_flexion_l	hip_adduction_l	hip_rotation_l	knee_angle_l	knee_angle_l_beta	ankle_angle_l	subtalar_angle_l	mtp_angle_l	lumbar_extension	lumbar_bending	lumbar_rotation	arm_flex_r	arm_add_r	arm_rot_r	elbow_flex_r	pro_sup_r	wrist_flex_r	wrist_dev_r	arm_flex_l	arm_add_l	arm_rot_l	elbow_flex_l	pro_sup_l	wrist_flex_l	wrist_dev_l
      0.00000000	     25.00767951	     -1.96924252	      1.73338927	      0.02877657	      1.33814150	     -0.00600022	     47.15405800	    -17.52226637	     -6.57949050	     93.51710973	      1.63218147	     -4.64268331	    -19.41223595	      0.00000000	      5.78172590	     -9.13924478	     -6.58454332	     46.39468943	      0.80974009	    -30.05461377	    -28.29741879	      0.00000000	    -77.71555013	      6.49541985	      7.82200767	     40.27212555	    -17.14996699	    -14.13933158	     49.84033705	     44.10314778	      0.00000000	      0.00000000	     52.44583719	     10.37998515	    -21.87433533	     42.72642448	     48.19028822	      0.00000000	      0.00000000
      0.01700000	     25.26652795	     -2.13485436	      2.01348392	      0.02811912	      1.33881136	     -0.00615337	     45.14051142	    -17.40095861	     -7.96398604	     89.48960572	      1.56188827	     -4.28912305	    -20.03069588	      0.00000000	      6.86400046	     -8.97549263	     -3.97096392	     50.72264095	      0.88527709	    -29.45842249	    -29.87967327	      0.00000000	    -77.86189852	      6.71787962	      8.03824687	     40.15486432	    -17.04664242	    -14.17502948	     49.74484556	     43.59489030	      0.00000000	      0.00000000	     52.52911175	     10.36871312	    -21.84499060	     42.49742924	     48.17068642	      0.00000000	      0.00000000
      0.03300000	     25.45294698	     -2.28339269	      2.47720260	      0.02750422	      1.33919839	     -0.00656602	     43.14090168	    -17.39855633	     -9.49334613	     85.37607524	      1.49009362	     -4.27037087	    -20.76030397	      0.00000000	      8.04269536	     -8.67481316	     -1.22771393	     54.97747436	      0.95953794	    -29.23918065	    -30.83096030	      0.00000000	    -77.91358860	      7.11085841	      8.19095984	     40.01503376	    -16.94924632	    -14.16890581	     49.65735505	     43.08754392	      0.00000000	      0.00000000	     52.58612297	     10.36796023	    -21.86703604	     42.28863080	     48.20973642	      0.00000000	      0.00000000
      0.05000000	     25.59943082	     -2.19075621	      2.80962171	      0.02706605	      1.33953477	     -0.00676809	     40.94902917	    -17.33632344	    -10.60541983	     81.03058995	      1.41425059	     -4.35968388	    -21.31834589	      0.00000000	      9.44708457	     -8.20642655	      0.82732237	     59.41903339	      1.03705777	    -28.98758795	    -31.46430958	      0.00000000	    -77.93359445	      7.33559712	      8.12959621	     39.93024105	    -16.89492930	    -14.20348446	     49.52405394	     42.66065413	      0.00000000	      0.00000000	     52.65789591	     10.37450790	    -21.85954704	     42.06336744	     48.25261672	      0.00000000	      0.00000000
      0.06700000	     25.64066725	     -1.66490244	      2.87915380	      0.02683261	      1.33975446	     -0.00628397	     38.58644393	    -17.22919296	    -10.90745228	     76.35050136	      1.33256763	     -4.12359551	    -21.50291985	      0.00000000	     11.25334628	     -7.51572389	      1.81909527	     64.21690896	      1.12079650	    -28.46985990	    -31.81849892	      0.00000000	    -77.87733243	      7.18145757	      7.68258254	     39.91804024	    -16.85690632	    -14.33768845	     49.33519463	     42.44721918	      0.00000000	      0.00000000	     52.82049189	     10.38804367	    -21.86483386	     41.85009362	     48.35705427	      0.00000000	      0.00000000
      0.08300000	     25.62431772	     -1.06810254	      3.14326041	      0.02675896	      1.33987259	     -0.00599381	     35.86690190	    -17.20335438	    -11.29662731	     71.30088577	      1.24443522	     -4.17147295	    -21.94357252	      0.00000000	     13.44317925	     -6.75680353	      2.67254268	     69.13804582	      1.20668654	    -28.54285502	    -32.08393517	      0.00000000	    -77.78826368	      7.22337024	      7.14494495	     39.93162360	    -16.91307971	    -14.41742175	     49.17646483	     42.25569474	      0.00000000	      0.00000000	     52.96088550	     10.46986665	    -21.92093876	     41.62733686	     48.56545964	      0.00000000	      0.00000000
      0.10000000	     25.59346450	     -0.39636646	      3.39435350	      0.02664297	      1.33983327	     -0.00560899	     32.96597500	    -17.13007922	    -11.68289159	     66.23908777	      1.15609018	     -4.50457056	    -22.31172414	      0.00000000	     15.75470799	     -5.96467723	      3.34021956	     73.91876542	      1.29012584	    -28.40981821	    -32.18024641	      0.00000000	    -77.67636075	      7.17323155	      6.49888047	     39.89558093	    -16.90298677	    -14.57901659	     49.01825237	     42.10624121	      0.00000000	      0.00000000	     53.10626283	     10.51290666	    -21.95699316	     41.44539344	     48.79742858	      0.00000000	      0.00000000
